<svg xmlns="http://www.w3.org/2000/svg" xmlns:xlink="http://www.w3.org/1999/xlink" width="128" height="128" version="1.1" viewBox="0 0 128 128"><title>画板@1x</title><defs><linearGradient id="linearGradient-1" x1="20.368%" x2="78.957%" y1="20.368%" y2="78.957%"><stop offset="0%" stop-color="#5A5A5A"/><stop offset="100%" stop-color="#464646"/></linearGradient><linearGradient id="linearGradient-2" x1="82.811%" x2="2.631%" y1="82.812%" y2="2.631%"><stop offset="0%" stop-color="#464646" stop-opacity="0"/><stop offset="100%" stop-color="#202020"/></linearGradient><linearGradient id="linearGradient-3" x1="66.551%" x2="95.592%" y1="66.552%" y2="95.593%"><stop offset="0%" stop-color="#464646" stop-opacity="0"/><stop offset="100%" stop-color="#202020"/></linearGradient><linearGradient id="linearGradient-4" x1="41.329%" x2="121.511%" y1="41.33%" y2="121.511%"><stop offset="0%" stop-color="#464646" stop-opacity="0"/><stop offset="100%" stop-color="#202020"/></linearGradient><linearGradient id="linearGradient-5" x1="53.645%" x2="10.625%" y1="53.645%" y2="10.625%"><stop offset="0%" stop-color="#464646" stop-opacity="0"/><stop offset="100%" stop-color="#202020"/></linearGradient><linearGradient id="linearGradient-6" x1="73.246%" x2="40.134%" y1="55.635%" y2="46.291%"><stop offset="0%" stop-color="#464646" stop-opacity="0"/><stop offset="17.72%" stop-color="#3D3D3D" stop-opacity=".177"/><stop offset="67.36%" stop-color="#282828" stop-opacity=".674"/><stop offset="100%" stop-color="#202020"/></linearGradient><linearGradient id="linearGradient-7" x1="38.323%" x2="7.567%" y1="47.742%" y2="35.409%"><stop offset="0%" stop-color="#464646" stop-opacity="0"/><stop offset="100%" stop-color="#202020"/></linearGradient><linearGradient id="linearGradient-8" x1="13.857%" x2="89.255%" y1="13.859%" y2="89.257%"><stop offset="0%" stop-color="#BCE097"/><stop offset="100%" stop-color="#7DC03A"/></linearGradient><linearGradient id="linearGradient-9" x1="50%" x2="50%" y1="14.292%" y2="99.059%"><stop offset="0%" stop-color="#8CC951" stop-opacity="0"/><stop offset="100%" stop-color="#3E6E66"/></linearGradient><linearGradient id="linearGradient-10" x1="37.527%" x2="-10.613%" y1="51.65%" y2="28.516%"><stop offset="0%" stop-color="#8CC951" stop-opacity="0"/><stop offset="100%" stop-color="#3E6E66"/></linearGradient><linearGradient id="linearGradient-11" x1="89.385%" x2="47.52%" y1="99.989%" y2="34.713%"><stop offset="0%" stop-color="#8CC951" stop-opacity="0"/><stop offset="100%" stop-color="#3E6E66"/></linearGradient><linearGradient id="linearGradient-12" x1="91.924%" x2="39.067%" y1="76.587%" y2="7.151%"><stop offset="0%" stop-color="#464646" stop-opacity="0"/><stop offset="17.72%" stop-color="#3D3D3D" stop-opacity=".177"/><stop offset="67.36%" stop-color="#282828" stop-opacity=".674"/><stop offset="100%" stop-color="#202020"/></linearGradient><linearGradient id="linearGradient-13" x1="13.204%" x2="107.961%" y1="9.19%" y2="105.506%"><stop offset="0%" stop-color="#BCE097"/><stop offset="100%" stop-color="#7DC03A"/></linearGradient><linearGradient id="linearGradient-14" x1="45.995%" x2="72.261%" y1="32.566%" y2="84.412%"><stop offset="0%" stop-color="#8CC951" stop-opacity="0"/><stop offset="100%" stop-color="#3E6E66"/></linearGradient><linearGradient id="linearGradient-15" x1="37.874%" x2="81.811%" y1="18.854%" y2="86.185%"><stop offset="0%" stop-color="#8CC951" stop-opacity="0"/><stop offset="100%" stop-color="#3E6E66"/></linearGradient><linearGradient id="linearGradient-16" x1="50%" x2="50%" y1="8.506%" y2="115.413%"><stop offset="0%" stop-color="#464646" stop-opacity="0"/><stop offset="100%" stop-color="#202020"/></linearGradient><linearGradient id="linearGradient-17" x1="28.492%" x2="76.926%" y1="17.062%" y2="83.639%"><stop offset="0%" stop-color="#BCE097"/><stop offset="100%" stop-color="#7DC03A"/></linearGradient><linearGradient id="linearGradient-18" x1="45.995%" x2="72.261%" y1="32.565%" y2="84.411%"><stop offset="0%" stop-color="#8CC951" stop-opacity="0"/><stop offset="100%" stop-color="#3E6E66"/></linearGradient></defs><g id="画板" fill="none" fill-rule="evenodd" stroke="none" stroke-width="1"><g id="3845874" fill-rule="nonzero" transform="translate(10.000000, 10.249513)"><g id="编组"><path id="形状" fill="url(#linearGradient-1)" d="M92.0035996,15.7858741 C82.249709,6.03198349 68.7781383,0 53.8947368,0 C39.0113354,0 25.5397647,6.03198349 15.7858741,15.7858741 C6.03198349,25.5397647 0,39.0113354 0,53.8947368 C0,83.6594262 24.1300475,107.789474 53.8947368,107.789474 C68.7781383,107.789474 82.249709,101.75749 92.0035996,92.0035996 C101.75749,82.249709 107.789474,68.7781383 107.789474,53.8947368 C107.789474,39.0113354 101.75749,25.5397647 92.0035996,15.7858741 Z M63.0109787,63.0109787 C60.6780764,65.3438811 57.4530576,66.7872033 53.8947368,66.7872033 C46.7753478,66.7872033 41.0022704,61.0141259 41.0022704,53.8947368 C41.0022704,50.3364161 42.4455926,47.1113973 44.7784949,44.7784949 C47.1113973,42.4455926 50.3364161,41.0022704 53.8947368,41.0022704 C57.4530576,41.0022704 60.6780764,42.4455926 63.0109787,44.7784949 C65.3438811,47.1113973 66.7872033,50.3364161 66.7872033,53.8947368 C66.7872033,57.4530576 65.3438811,60.6780764 63.0109787,63.0109787 Z"/><path id="形状" fill="url(#linearGradient-2)" d="M87.5271662,20.2623075 C78.9209164,11.6539443 67.0281445,6.32998968 53.8947368,6.32998968 C40.7613292,6.32998968 28.8685573,11.6539443 20.2623075,20.2623075 C11.6539443,28.8685573 6.32998968,40.7613292 6.32998968,53.8947368 C6.32998968,80.1636656 27.625808,101.459484 53.8947368,101.459484 C67.0281445,101.459484 78.9209164,96.1355294 87.5271662,87.5271662 C96.1355294,78.9209164 101.459484,67.0281445 101.459484,53.8947368 C101.459484,40.7613292 96.1355294,28.8685573 87.5271662,20.2623075 Z M63.0109787,63.0109787 C60.6780764,65.3438811 57.4530576,66.7872033 53.8947368,66.7872033 C46.7753478,66.7872033 41.0022704,61.0141259 41.0022704,53.8947368 C41.0022704,50.3364161 42.4455926,47.1113973 44.7784949,44.7784949 C47.1113973,42.4455926 50.3364161,41.0022704 53.8947368,41.0022704 C57.4530576,41.0022704 60.6780764,42.4455926 63.0109787,44.7784949 C65.3438811,47.1113973 66.7872033,50.3364161 66.7872033,53.8947368 C66.7872033,57.4530576 65.3438811,60.6780764 63.0109787,63.0109787 Z"/><path id="形状" fill="url(#linearGradient-3)" d="M87.5271662,20.2623075 C78.9209164,11.6539443 67.0281445,6.32998968 53.8947368,6.32998968 C40.7613292,6.32998968 28.8685573,11.6539443 20.2623075,20.2623075 C11.6539443,28.8685573 6.32998968,40.7613292 6.32998968,53.8947368 C6.32998968,80.1636656 27.625808,101.459484 53.8947368,101.459484 C67.0281445,101.459484 78.9209164,96.1355294 87.5271662,87.5271662 C96.1355294,78.9209164 101.459484,67.0281445 101.459484,53.8947368 C101.459484,40.7613292 96.1355294,28.8685573 87.5271662,20.2623075 Z M63.0109787,63.0109787 C60.6780764,65.3438811 57.4530576,66.7872033 53.8947368,66.7872033 C46.7753478,66.7872033 41.0022704,61.0141259 41.0022704,53.8947368 C41.0022704,50.3364161 42.4455926,47.1113973 44.7784949,44.7784949 C47.1113973,42.4455926 50.3364161,41.0022704 53.8947368,41.0022704 C57.4530576,41.0022704 60.6780764,42.4455926 63.0109787,44.7784949 C65.3438811,47.1113973 66.7872033,50.3364161 66.7872033,53.8947368 C66.7872033,57.4530576 65.3438811,60.6780764 63.0109787,63.0109787 Z"/><path id="形状" fill="url(#linearGradient-4)" d="M53.8947368,94.2735191 C65.0456636,94.2735191 75.1398308,89.7527018 82.4462663,82.4462663 C89.7527018,75.1398308 94.2735191,65.0456636 94.2735191,53.8947368 C94.2735191,42.7438101 89.7527018,32.6496429 82.4462663,25.3432074 C75.1398308,18.0367719 65.0456636,13.5159546 53.8947368,13.5159546 C42.7438101,13.5159546 32.6496429,18.0367719 25.3432074,25.3432074 C18.0367719,32.6496429 13.5159546,42.7438101 13.5159546,53.8947368 C13.5159546,76.1944768 31.5949969,94.2735191 53.8947368,94.2735191 Z M44.7784949,44.7784949 C47.111186,42.4455926 50.3364161,41.0022704 53.8947368,41.0022704 C61.0141259,41.0022704 66.7872033,46.7753478 66.7872033,53.8947368 C66.7872033,57.4530576 65.3438811,60.6780764 63.0109787,63.0109787 C60.6780764,65.3438811 57.4530576,66.7872033 53.8947368,66.7872033 C50.3364161,66.7872033 47.111186,65.3438811 44.7784949,63.0109787 C42.4455926,60.6780764 41.0022704,57.4530576 41.0022704,53.8947368 C41.0022704,50.3364161 42.4455926,47.1113973 44.7784949,44.7784949 L44.7784949,44.7784949 Z"/><path id="形状" fill="url(#linearGradient-5)" d="M53.8947368,13.5159546 C42.7438101,13.5159546 32.6496429,18.0367719 25.3432074,25.3432074 C18.0367719,32.6496429 13.5159546,42.7438101 13.5159546,53.8947368 C13.5159546,65.0456636 18.0367719,75.1398308 25.3432074,82.4462663 C32.6496429,89.7527018 42.7438101,94.2735191 53.8947368,94.2735191 C65.0456636,94.2735191 75.1398308,89.7527018 82.4462663,82.4462663 C89.7527018,75.1398308 94.2735191,65.0456636 94.2735191,53.8947368 C94.2735191,31.5949969 76.1944768,13.5159546 53.8947368,13.5159546 Z M63.0109787,63.0109787 C60.6780764,65.3438811 57.4530576,66.7872033 53.8947368,66.7872033 C46.7753478,66.7872033 41.0022704,61.0141259 41.0022704,53.8947368 C41.0022704,50.3364161 42.4455926,47.1113973 44.7784949,44.7784949 C47.1113973,42.4455926 50.3364161,41.0022704 53.8947368,41.0022704 C57.4530576,41.0022704 60.6780764,42.4455926 63.0109787,44.7784949 C65.3438811,47.1113973 66.7872033,50.3364161 66.7872033,53.8947368 C66.7872033,57.4530576 65.3438811,60.6780764 63.0109787,63.0109787 Z"/></g><path id="路径" fill="url(#linearGradient-6)" d="M107.789474,53.8947368 C107.789474,39.0113354 101.75749,25.5397647 92.0035996,15.7858741 C87.8251723,11.6074469 82.9628103,8.11485655 77.6012351,5.48415934 L76.5696264,5.67501011 C75.7493697,5.82676078 75.1539913,6.542187 75.1539913,7.37639298 L75.1539913,29.4888751 C72.5807818,28.9421077 69.5605631,29.529032 66.9488875,31.3274254 C62.4515302,34.4243649 60.871252,39.9345205 63.4190993,43.6346584 C63.794883,44.180369 64.2408355,44.6540087 64.7400487,45.0589589 L100.557223,80.8761329 C105.155818,72.9409255 107.789474,63.726405 107.789474,53.8947368 L107.789474,53.8947368 Z"/><path id="路径" fill="url(#linearGradient-7)" d="M92.0035996,92.0035996 C93.6572169,90.3499822 95.2009313,88.587096 96.6294588,86.7307922 C89.539659,79.5955517 32.5889849,22.2650782 32.5124755,22.1786353 C32.1443005,21.761638 31.5721709,21.5348574 30.9717201,21.6458171 L19.0102588,23.8571922 C18.3611971,23.9776627 17.8911505,24.5430291 17.8911505,25.2039265 L17.8911505,42.7057668 C15.8535067,42.2741862 13.4631166,42.7374696 11.3952495,44.161136 C7.83692879,46.6136636 6.58572549,50.9749102 8.6016,53.9023455 L61.9020153,107.196632 C73.5794196,105.457205 84.0330964,99.9741028 92.0035996,92.0035996 Z"/><g id="编组" transform="translate(24.939525, 24.939525)"><path id="形状" fill="url(#linearGradient-8)" d="M49.4225304,8.48789267 C44.1852301,3.24847884 36.9485408,0.00845407637 28.9552116,0.00845407637 C20.9618824,0.00845407637 13.725193,3.24847884 8.48789267,8.48789267 C3.24847884,13.725193 0.00845407637,20.9618824 0.00845407637,28.9552116 C0.00845407637,44.94187 12.9685531,57.901969 28.9552116,57.901969 C36.9485408,57.901969 44.1852301,54.6619443 49.4225304,49.4225304 C54.6619443,44.1852301 57.901969,36.9485408 57.901969,28.9552116 C57.901969,20.9618824 54.6619443,13.725193 49.4225304,8.48789267 Z M35.9792809,35.9792809 C34.1817329,37.7766175 31.6968685,38.8887513 28.9552116,38.8887513 C23.4697841,38.8887513 19.0216718,34.440639 19.0216718,28.9552116 C19.0216718,26.2135546 20.1338056,23.7286902 21.9311422,21.9311422 C23.7284788,20.1335942 26.2135546,19.0216718 28.9552116,19.0216718 C31.6968685,19.0216718 34.1817329,20.1338056 35.9792809,21.9311422 C37.7766175,23.7286902 38.8887513,26.2135546 38.8887513,28.9552116 C38.8887513,31.6968685 37.7766175,34.1817329 35.9792809,35.9792809 Z"/><path id="路径" fill="url(#linearGradient-9)" d="M30.9977164,38.6773994 C30.3382985,38.8154122 29.6552091,38.8887513 28.9552116,38.8887513 C28.2547913,38.8887513 27.571702,38.8154122 26.912284,38.6773994 L1.68384066,38.6773994 C5.6786031,49.8813754 16.3795616,57.901969 28.9552116,57.901969 C36.9485408,57.901969 44.1852301,54.6619443 49.4225304,49.4225304 C52.4260524,46.4200652 54.7707905,42.7598729 56.2265825,38.6773994 L30.9977164,38.6773994 Z"/><path id="路径" fill="url(#linearGradient-10)" d="M53.8114642,43.7946518 C49.1376281,39.0895356 43.9926885,33.9101457 38.8841015,28.7673197 C38.8853697,28.8300912 38.8889626,28.8922287 38.8889626,28.9554229 C38.8889626,31.6970799 37.7768289,34.1819443 35.9794923,35.9794923 C34.1821556,37.7770402 31.6968685,38.8887513 28.9552116,38.8887513 C23.4697841,38.8887513 19.0216718,34.440639 19.0216718,28.9552116 C19.0216718,26.2135546 20.1338056,23.7286902 21.9311422,21.9311422 C23.7286902,20.1335942 26.2135546,19.0216718 28.9552116,19.0216718 C29.0408091,19.0216718 29.1251385,19.0258989 29.210102,19.0282237 C23.4327975,13.2118192 18.1716144,7.9147063 14.2837961,3.99962353 C12.1641478,5.24871331 10.2165399,6.75861135 8.48789267,8.48789267 C3.24847884,13.725193 0.00845407637,20.9618824 0.00845407637,28.9552116 C0.00845407637,44.94187 12.9685531,57.901969 28.9552116,57.901969 C36.9485408,57.901969 44.1852301,54.6619443 49.4225304,49.4225304 C51.1061598,47.7395352 52.5818188,45.8492037 53.8114642,43.7946518 L53.8114642,43.7946518 Z"/></g><path id="路径" fill="url(#linearGradient-11)" d="M82.8414943,53.8947368 C82.8414943,45.9014076 79.6014696,38.6647183 74.3620557,33.427418 C73.0237754,32.088715 71.554457,30.8814729 69.9758696,29.824502 C68.9398225,30.1622423 67.9164566,30.6610328 66.9490989,31.327214 C62.4517416,34.4241536 60.8714634,39.9343092 63.4193106,43.6344471 C63.7950943,44.1801577 64.2410469,44.6537973 64.7402601,45.0587476 L81.6877243,62.0062118 C82.4378122,59.4321569 82.8414943,56.7107897 82.8414943,53.8947368 L82.8414943,53.8947368 Z"/><path id="路径" fill="url(#linearGradient-12)" d="M90.9869969,38.2546956 L107.775947,55.0436458 C107.783979,54.6615216 107.789474,54.2787633 107.789474,53.8947368 C107.789474,46.4737486 106.289298,39.4040272 103.576385,32.9708978 L96.2707946,32.9708978 C93.3526588,32.9708978 90.9869969,35.3365598 90.9869969,38.2546956 L90.9869969,38.2546956 Z"/><g id="编组" transform="translate(61.926109, 0.000000)"><path id="路径" fill="url(#linearGradient-13)" d="M13.0167414,7.16482972 L13.0167414,29.2773119 C10.4435319,28.7305445 7.42331311,29.3174687 4.81163756,31.1158621 C0.314280289,34.2128017 -1.26599794,39.7229573 1.28184933,43.4230951 C3.82990795,47.123233 9.54127059,47.61209 14.0386279,44.5149391 C17.1708632,42.3578815 18.8859839,39.0307798 18.7790398,35.9594138 L18.7860144,35.9594138 L18.7860144,15.2505197 C18.7860144,14.775612 19.1250229,14.3681255 19.5921106,14.2818939 L38.9299649,10.7058196 C39.5354881,10.5938031 40.0943026,11.0587773 40.0943026,11.6744454 L40.0943026,23.2032693 C37.5210931,22.656502 34.5008743,23.2434262 31.8891988,25.0418196 C27.3918415,28.1387591 25.8115633,33.6489148 28.3594105,37.3490526 C30.9074691,41.0491905 36.6188318,41.5380475 41.1161891,38.4408966 C44.2484244,36.283839 45.9635451,32.9567373 45.856601,29.8853713 L45.8633643,29.8853713 L45.8633643,1.73076078 C45.8633643,0.649273065 44.8820574,-0.16717936 43.8185346,0.0293779154 L14.4321651,5.46344685 C13.6119084,5.61519752 13.0167414,6.33062374 13.0167414,7.16482972 L13.0167414,7.16482972 Z"/><g id="路径"><path fill="url(#linearGradient-14)" d="M13.01653,8.56482477 C10.4433205,8.01805738 7.42310175,8.60498163 4.81142621,10.403375 C0.314068937,13.5003146 -1.26620929,19.0104702 1.28163798,22.710608 C3.82948524,26.4107459 9.54084788,26.8993915 14.0384165,23.802452 C17.1706518,21.6453944 18.8857725,18.3182927 18.7788285,15.2469267 L18.7858031,15.2469267 L18.7858031,0.204588648 L13.01653,0.204588648 L13.01653,8.56482477 Z" transform="translate(0.000000, 20.712487)"/><path fill="url(#linearGradient-15)" d="M45.8633643,0.204588648 L40.0940912,0.204588648 L40.0940912,2.49078225 C37.5208817,1.94401486 34.500663,2.53093911 31.8889874,4.32954386 C27.3916301,7.42648338 25.8113519,12.936639 28.3591992,16.6367769 C30.9072578,20.3369148 36.6184091,20.8257717 41.1159777,17.7286208 C44.248213,15.5715633 45.9633337,12.2444615 45.8563897,9.17309556 L45.8633643,9.17309556 L45.8633643,0.204588648 Z" transform="translate(0.000000, 20.712487)"/></g></g><path id="路径" fill="url(#linearGradient-16)" d="M8.42723467,82.8414943 C17.9968264,97.8411393 34.7838745,107.789474 53.8947368,107.789474 C68.7781383,107.789474 82.249709,101.75749 92.0035996,92.0035996 C94.7748458,89.2323534 97.2447042,86.160142 99.3620277,82.8414943 L8.42723467,82.8414943 Z"/><g id="编组" transform="translate(7.397317, 21.346543)"><path id="路径" fill="url(#linearGradient-17)" d="M25.3184793,1.71469804 C25.3184793,5.04412466 22.9428838,7.89948896 19.6688314,8.50501218 L15.4868111,9.27856017 C15.1171567,9.34703818 14.847683,9.6699839 14.847683,10.0464017 L14.847683,26.4373763 L14.8426105,26.4373763 C14.9279967,28.8681346 13.569638,31.5011567 11.0902687,33.2093028 C7.53025717,35.6601395 3.01028524,35.2735769 0.992719917,32.3444508 C-1.02315459,29.4168041 0.228260062,25.0557688 3.78636945,22.6032413 C5.85402518,21.1795748 8.24462663,20.7162914 10.2822704,21.147872 L10.2822704,3.64603179 C10.2822704,2.98513437 10.752317,2.41976801 11.4013787,2.29929742 L23.36284,0.0879223942 C24.3800768,-0.099969453 25.3184793,0.680553148 25.3184793,1.71469804 Z"/><path id="路径" fill="url(#linearGradient-18)" d="M10.2818477,21.1485061 C8.24504933,20.7158687 5.85465924,21.1802089 3.78742621,22.6038753 C0.227626006,25.0551348 -1.02315459,29.4165928 0.993565325,32.3452962 C3.01028524,35.2739996 7.53089123,35.6607736 11.0906914,33.2095141 C13.5698493,31.5022134 14.9273626,28.8685573 14.8428219,26.437799 L14.848317,26.437799 L14.848317,14.5315005 L10.2818477,14.5315005 L10.2818477,21.1485061 Z"/></g></g></g></svg>