<svg xmlns="http://www.w3.org/2000/svg" xmlns:xlink="http://www.w3.org/1999/xlink" width="32" height="32" version="1.1" viewBox="0 0 32 32"><title>comments@1x</title><defs><linearGradient id="linearGradient-1" x1="39.907%" x2="113.315%" y1="39.91%" y2="113.318%"><stop offset="0%" stop-color="#A7F3CE"/><stop offset="100%" stop-color="#61DB99"/></linearGradient><linearGradient id="linearGradient-2" x1="63.937%" x2="32.757%" y1="63.939%" y2="32.762%"><stop offset="0%" stop-color="#61DB99" stop-opacity="0"/><stop offset="100%" stop-color="#009E74"/></linearGradient><linearGradient id="linearGradient-3" x1="31.733%" x2="95.35%" y1="41.917%" y2="105.535%"><stop offset="0%" stop-color="#62E1FB"/><stop offset="100%" stop-color="#00A2F3"/></linearGradient><linearGradient id="linearGradient-4" x1="76.768%" x2="-26.201%" y1="76.773%" y2="-26.193%"><stop offset="0%" stop-color="#00A2F3" stop-opacity="0"/><stop offset="100%" stop-color="#0075CD"/></linearGradient><linearGradient id="linearGradient-5" x1="76.764%" x2="-26.203%" y1="76.771%" y2="-26.196%"><stop offset="0%" stop-color="#00A2F3" stop-opacity="0"/><stop offset="100%" stop-color="#0075CD"/></linearGradient><linearGradient id="linearGradient-6" x1="76.764%" x2="-26.203%" y1="76.772%" y2="-26.195%"><stop offset="0%" stop-color="#00A2F3" stop-opacity="0"/><stop offset="100%" stop-color="#0075CD"/></linearGradient></defs><g id="comments" fill="none" fill-rule="evenodd" stroke="none" stroke-width="1"><g id="1041916" fill-rule="nonzero" transform="translate(3.000000, 3.125000)"><path id="Path" fill="url(#linearGradient-1)" d="M17.2842109,7.87784766 C22.0316484,7.80533203 25.9064609,11.5418672 25.998375,16.2889492 C26.0118828,16.9859219 25.9422109,17.6643086 25.7987031,18.3150195 C25.5556641,19.4168203 25.4111914,20.5380195 25.4111914,21.6663281 L25.4111914,23.8472813 C25.4111914,24.1814219 25.1403242,24.4522891 24.8061836,24.4522891 L22.6252305,24.4522891 C21.4969219,24.4522891 20.3757227,24.5967617 19.2739219,24.8398008 C18.6232617,24.9833086 17.944875,25.0529805 17.2479023,25.0394727 C12.5008711,24.9476094 8.76433594,21.0728984 8.83675,16.3255625 C8.90738672,11.6917734 12.6504727,7.94863672 17.2842109,7.87784766 Z"/><path id="Path" fill="url(#linearGradient-2)" d="M17.2842109,7.87784766 C22.0316484,7.80533203 25.9064609,11.5418672 25.998375,16.2889492 C26.0118828,16.9859219 25.9422109,17.6643086 25.7987031,18.3150195 C25.5556641,19.4168203 25.4111914,20.5380195 25.4111914,21.6663281 L25.4111914,23.8472813 C25.4111914,24.1814219 25.1403242,24.4522891 24.8061836,24.4522891 L22.6252305,24.4522891 C21.4969219,24.4522891 20.3757227,24.5967617 19.2739219,24.8398008 C18.6232617,24.9833086 17.944875,25.0529805 17.2479023,25.0394727 C12.5008711,24.9476094 8.76433594,21.0728984 8.83675,16.3255625 C8.90738672,11.6917734 12.6504727,7.94863672 17.2842109,7.87784766 Z"/><path id="Path" fill="url(#linearGradient-3)" d="M10.6182578,0.0461601562 C4.83457812,-0.0421992188 0.114003906,4.50988281 0.00198046875,10.2931562 C-0.014421875,11.142168 0.0704335937,11.9687344 0.245324219,12.7614297 C0.541378906,14.1036797 0.717386719,15.4696445 0.717386719,16.8442422 L0.717386719,19.5012187 C0.717386719,19.9082812 1.04736328,20.2383086 1.45447656,20.2383086 L4.11145312,20.2383086 C5.486,20.2383086 6.85196484,20.4143164 8.19426562,20.7103711 C8.98696094,20.8852109 9.81347656,20.9701172 10.6624883,20.9536641 C16.4456602,20.8416914 20.9977422,16.1212695 20.9095859,10.3376914 C20.8234609,4.69249219 16.2634063,0.132335937 10.6182578,0.0461601562 Z"/><path id="Path" fill="url(#linearGradient-4)" d="M6.71292578,9.93987109 C6.41758203,9.62604297 5.99955078,9.42896094 5.53449609,9.42896094 C4.64008594,9.42896094 3.91503125,10.1540156 3.91503125,11.0484258 C3.91503125,11.5134297 4.1120625,11.9314609 4.42594141,12.2268555 L7.91938672,15.7203008 C8.21478125,16.0341289 8.6328125,16.2312109 9.09781641,16.2312109 C9.99222656,16.2312109 10.7172813,15.5061562 10.7172813,14.6117461 C10.7172813,14.1467422 10.5201992,13.7287109 10.2063711,13.4333164 L6.71292578,9.93987109 Z"/><circle id="Oval" cx="5.534" cy="11.048" r="1.619" fill="#FFF"/><path id="Path" fill="url(#linearGradient-5)" d="M11.2928867,9.93987109 C10.997543,9.62604297 10.5795117,9.42896094 10.114457,9.42896094 C9.22004688,9.42896094 8.49499219,10.1540156 8.49499219,11.0484258 C8.49499219,11.5134297 8.69202344,11.9314609 9.00590234,12.2268555 L12.4993477,15.7203008 C12.7947422,16.0341289 13.2127734,16.2312109 13.6777773,16.2312109 C14.5721875,16.2312109 15.2972422,15.5061562 15.2972422,14.6117461 C15.2972422,14.1467422 15.1001602,13.7287109 14.786332,13.4333164 L11.2928867,9.93987109 Z"/><circle id="Oval" cx="10.115" cy="11.048" r="1.619" fill="#FFF"/><path id="Path" fill="url(#linearGradient-6)" d="M15.8727969,9.93987109 C15.5774531,9.62604297 15.1594219,9.42896094 14.6943672,9.42896094 C13.799957,9.42896094 13.0749023,10.1540156 13.0749023,11.0484258 C13.0749023,11.5134297 13.2719844,11.9314609 13.5858125,12.2268555 L17.0792578,15.7203008 C17.3746523,16.0341289 17.7926836,16.2312109 18.2576875,16.2312109 C19.1520977,16.2312109 19.8771523,15.5061562 19.8771523,14.6117461 C19.8771523,14.1467422 19.6800703,13.7287109 19.3662422,13.4333164 L15.8727969,9.93987109 Z"/><circle id="Oval" cx="14.695" cy="11.048" r="1.619" fill="#FFF"/></g></g></svg>